# xmcd
#
# Track frame offsets: 
#        150
#        11542
#        43689
#        65597
#        77374
#        99575
#        122953
#        153626
#        176649
#        205836
#        232935
#        252408
#        276044
#        314205
#
# Disc length: 4510 seconds
#
# Revision: 8
# Processed by: cddbd v1.5.1PL0 Copyright (c) Steve Scherf et al.
# Submitted via: ExactAudioCopy v0.95a5
#
DISCID=c1119c0e
DTITLE=Various Artist - Astor Piazzolla - The Tango Way - The Classic Way [CD
DTITLE=2)
DYEAR=2002
DGENRE=Tango
TTITLE0=Octeto Académico de Caracas - El Desbande
TTITLE1=Triestango - Invierno Porteño
TTITLE2=Los 12 Cellistas de La BPO-Juliane Banse - Adiós Nonino
TTITLE3=Orquesta Estable del Teatro Colón - Decarísimo
TTITLE4=Eróica Trio - Otoño Porteño
TTITLE5=Los 12 Cellistas de La BPO-Juliane Banse - Fuga y Misterio
TTITLE6=Mark Gould - Café 1930
TTITLE7=Triestango - Oblivion
TTITLE8=Orquesta Estable del Teatro Colón - Milonga Del Angel
TTITLE9=Pahud Barrueco - Night Club 1960
TTITLE10=Triestango - Nuestro Tiempo
TTITLE11=Los 12 Cellistas de La BPO-Juliane Banse - Chiquilín de Banch
TTITLE11=ín
TTITLE12=Orquesta Estable del Teatro Colón - Concierto para Bandoneón
TTITLE13=Octeto Académico de Caracas - Adiós Nonino
EXTD=Disc 2
EXTT0=
EXTT1=
EXTT2=
EXTT3=
EXTT4=
EXTT5=
EXTT6=
EXTT7=
EXTT8=
EXTT9=
EXTT10=
EXTT11=
EXTT12=
EXTT13=
PLAYORDER=
